<mxfile host="app.diagrams.net" modified="2024-06-25T12:00:16.927Z" agent="Mozilla/5.0 (Windows NT 10.0; Win64; x64) AppleWebKit/537.36 (KHTML, like Gecko) Chrome/126.0.0.0 Safari/537.36" etag="MIUN6Nih0Awx1ue4rrF7" version="24.6.2" type="device" pages="4">
  <diagram name="Page-1" id="_kFFw52BY3J8krIUCbIz">
    <mxGraphModel dx="2954" dy="1106" grid="1" gridSize="10" guides="1" tooltips="1" connect="1" arrows="1" fold="1" page="1" pageScale="1" pageWidth="827" pageHeight="1169" math="0" shadow="0">
      <root>
        <mxCell id="0" />
        <mxCell id="1" parent="0" />
        <mxCell id="Qei81NZIr7ulTJUWE0Fq-1" value="Subprocess" style="rounded=1;whiteSpace=wrap;html=1;" vertex="1" parent="1">
          <mxGeometry x="180" y="265" width="150" height="80" as="geometry" />
        </mxCell>
        <mxCell id="Qei81NZIr7ulTJUWE0Fq-2" value="Frontend component" style="rounded=1;whiteSpace=wrap;html=1;" vertex="1" parent="1">
          <mxGeometry x="678" y="265" width="140" height="75" as="geometry" />
        </mxCell>
        <mxCell id="Qei81NZIr7ulTJUWE0Fq-3" style="edgeStyle=orthogonalEdgeStyle;rounded=0;orthogonalLoop=1;jettySize=auto;html=1;startArrow=classic;startFill=1;" edge="1" parent="1" source="Qei81NZIr7ulTJUWE0Fq-5" target="Qei81NZIr7ulTJUWE0Fq-1">
          <mxGeometry relative="1" as="geometry" />
        </mxCell>
        <mxCell id="Qei81NZIr7ulTJUWE0Fq-4" value="gRPC" style="edgeLabel;html=1;align=center;verticalAlign=middle;resizable=0;points=[];" vertex="1" connectable="0" parent="Qei81NZIr7ulTJUWE0Fq-3">
          <mxGeometry x="0.375" y="1" relative="1" as="geometry">
            <mxPoint x="-1" y="13" as="offset" />
          </mxGeometry>
        </mxCell>
        <mxCell id="Qei81NZIr7ulTJUWE0Fq-5" value="Grafana Server" style="image;aspect=fixed;html=1;points=[];align=center;fontSize=12;image=img/lib/azure2/other/Grafana.svg;" vertex="1" parent="1">
          <mxGeometry x="470" y="80" width="68" height="52.800000000000004" as="geometry" />
        </mxCell>
        <mxCell id="Qei81NZIr7ulTJUWE0Fq-6" style="edgeStyle=orthogonalEdgeStyle;rounded=0;orthogonalLoop=1;jettySize=auto;html=1;entryX=0.5;entryY=0;entryDx=0;entryDy=0;" edge="1" parent="1" source="Qei81NZIr7ulTJUWE0Fq-7" target="Qei81NZIr7ulTJUWE0Fq-16">
          <mxGeometry relative="1" as="geometry" />
        </mxCell>
        <mxCell id="Qei81NZIr7ulTJUWE0Fq-7" value="Backend Plugin" style="rounded=1;whiteSpace=wrap;html=1;fillColor=#dae8fc;strokeColor=#6c8ebf;" vertex="1" parent="1">
          <mxGeometry x="195" y="320" width="120" height="60" as="geometry" />
        </mxCell>
        <mxCell id="Qei81NZIr7ulTJUWE0Fq-8" style="edgeStyle=orthogonalEdgeStyle;rounded=0;orthogonalLoop=1;jettySize=auto;html=1;entryX=0.55;entryY=0.027;entryDx=0;entryDy=0;entryPerimeter=0;startArrow=classic;startFill=1;" edge="1" parent="1" source="Qei81NZIr7ulTJUWE0Fq-5" target="Qei81NZIr7ulTJUWE0Fq-2">
          <mxGeometry relative="1" as="geometry" />
        </mxCell>
        <mxCell id="Qei81NZIr7ulTJUWE0Fq-9" value="HTTP" style="edgeLabel;html=1;align=center;verticalAlign=middle;resizable=0;points=[];" vertex="1" connectable="0" parent="Qei81NZIr7ulTJUWE0Fq-8">
          <mxGeometry x="0.4058" y="-1" relative="1" as="geometry">
            <mxPoint as="offset" />
          </mxGeometry>
        </mxCell>
        <mxCell id="Qei81NZIr7ulTJUWE0Fq-10" style="edgeStyle=orthogonalEdgeStyle;rounded=0;orthogonalLoop=1;jettySize=auto;html=1;endArrow=none;endFill=0;dashed=1;" edge="1" parent="1" source="Qei81NZIr7ulTJUWE0Fq-11" target="Qei81NZIr7ulTJUWE0Fq-2">
          <mxGeometry relative="1" as="geometry">
            <Array as="points">
              <mxPoint x="538" y="400" />
              <mxPoint x="748" y="400" />
            </Array>
          </mxGeometry>
        </mxCell>
        <mxCell id="Qei81NZIr7ulTJUWE0Fq-11" value="Query Editors" style="rounded=1;whiteSpace=wrap;html=1;fillColor=#fff2cc;strokeColor=#d6b656;" vertex="1" parent="1">
          <mxGeometry x="478" y="450" width="120" height="60" as="geometry" />
        </mxCell>
        <mxCell id="Qei81NZIr7ulTJUWE0Fq-12" style="edgeStyle=orthogonalEdgeStyle;rounded=0;orthogonalLoop=1;jettySize=auto;html=1;endArrow=none;endFill=0;dashed=1;" edge="1" parent="1" source="Qei81NZIr7ulTJUWE0Fq-13">
          <mxGeometry relative="1" as="geometry">
            <mxPoint x="748" y="350" as="targetPoint" />
            <Array as="points">
              <mxPoint x="678" y="401" />
              <mxPoint x="749" y="401" />
            </Array>
          </mxGeometry>
        </mxCell>
        <mxCell id="Qei81NZIr7ulTJUWE0Fq-13" value="Config Editors" style="rounded=1;whiteSpace=wrap;html=1;fillColor=#fff2cc;strokeColor=#d6b656;" vertex="1" parent="1">
          <mxGeometry x="688" y="450" width="120" height="60" as="geometry" />
        </mxCell>
        <mxCell id="Qei81NZIr7ulTJUWE0Fq-14" style="edgeStyle=orthogonalEdgeStyle;rounded=0;orthogonalLoop=1;jettySize=auto;html=1;entryX=0.5;entryY=1;entryDx=0;entryDy=0;endArrow=none;endFill=0;dashed=1;" edge="1" parent="1" source="Qei81NZIr7ulTJUWE0Fq-15" target="Qei81NZIr7ulTJUWE0Fq-2">
          <mxGeometry relative="1" as="geometry">
            <Array as="points">
              <mxPoint x="958" y="400" />
              <mxPoint x="748" y="400" />
            </Array>
          </mxGeometry>
        </mxCell>
        <mxCell id="Qei81NZIr7ulTJUWE0Fq-15" value="Alerts" style="rounded=1;whiteSpace=wrap;html=1;fillColor=#fff2cc;strokeColor=#d6b656;" vertex="1" parent="1">
          <mxGeometry x="890" y="450" width="120" height="60" as="geometry" />
        </mxCell>
        <mxCell id="Qei81NZIr7ulTJUWE0Fq-16" value="OPC UA data source" style="rounded=1;whiteSpace=wrap;html=1;fillColor=#e1d5e7;strokeColor=#9673a6;" vertex="1" parent="1">
          <mxGeometry x="195" y="450" width="120" height="60" as="geometry" />
        </mxCell>
      </root>
    </mxGraphModel>
  </diagram>
  <diagram id="bArqrxCrFq0HwPNh2oR4" name="Page-2">
    <mxGraphModel dx="2954" dy="1106" grid="1" gridSize="10" guides="1" tooltips="1" connect="1" arrows="1" fold="1" page="1" pageScale="1" pageWidth="827" pageHeight="1169" math="0" shadow="0">
      <root>
        <mxCell id="0" />
        <mxCell id="1" parent="0" />
        <mxCell id="oAFobFfyp00tC_rnUVrY-14" style="edgeStyle=orthogonalEdgeStyle;rounded=0;orthogonalLoop=1;jettySize=auto;html=1;entryX=0.5;entryY=0;entryDx=0;entryDy=0;" edge="1" parent="1" source="oAFobFfyp00tC_rnUVrY-1" target="oAFobFfyp00tC_rnUVrY-2">
          <mxGeometry relative="1" as="geometry" />
        </mxCell>
        <mxCell id="oAFobFfyp00tC_rnUVrY-1" value="NewDataSource" style="rounded=1;whiteSpace=wrap;html=1;fillColor=#dae8fc;strokeColor=#6c8ebf;" vertex="1" parent="1">
          <mxGeometry x="370" y="310" width="120" height="60" as="geometry" />
        </mxCell>
        <mxCell id="oAFobFfyp00tC_rnUVrY-2" value="Datasource" style="rounded=1;whiteSpace=wrap;html=1;fillColor=#fff2cc;strokeColor=#d6b656;" vertex="1" parent="1">
          <mxGeometry x="370" y="480" width="120" height="60" as="geometry" />
        </mxCell>
        <mxCell id="oAFobFfyp00tC_rnUVrY-7" style="edgeStyle=orthogonalEdgeStyle;rounded=0;orthogonalLoop=1;jettySize=auto;html=1;entryX=0;entryY=0.5;entryDx=0;entryDy=0;curved=1;endArrow=none;endFill=0;" edge="1" parent="1" source="oAFobFfyp00tC_rnUVrY-3" target="oAFobFfyp00tC_rnUVrY-2">
          <mxGeometry relative="1" as="geometry">
            <Array as="points">
              <mxPoint x="170" y="510" />
            </Array>
          </mxGeometry>
        </mxCell>
        <mxCell id="oAFobFfyp00tC_rnUVrY-16" value="Implements" style="edgeLabel;html=1;align=center;verticalAlign=middle;resizable=0;points=[];" vertex="1" connectable="0" parent="oAFobFfyp00tC_rnUVrY-7">
          <mxGeometry x="-0.4235" y="-41" relative="1" as="geometry">
            <mxPoint as="offset" />
          </mxGeometry>
        </mxCell>
        <mxCell id="oAFobFfyp00tC_rnUVrY-3" value="QueryDataHandler" style="rounded=1;whiteSpace=wrap;html=1;fillColor=#dae8fc;strokeColor=#6c8ebf;" vertex="1" parent="1">
          <mxGeometry x="110" y="650" width="120" height="60" as="geometry" />
        </mxCell>
        <mxCell id="oAFobFfyp00tC_rnUVrY-4" value="CheckHealthHandler" style="rounded=1;whiteSpace=wrap;html=1;fillColor=#dae8fc;strokeColor=#6c8ebf;" vertex="1" parent="1">
          <mxGeometry x="290" y="650" width="120" height="60" as="geometry" />
        </mxCell>
        <mxCell id="oAFobFfyp00tC_rnUVrY-9" style="edgeStyle=orthogonalEdgeStyle;rounded=0;orthogonalLoop=1;jettySize=auto;html=1;entryX=0.75;entryY=1;entryDx=0;entryDy=0;curved=1;endArrow=none;endFill=0;" edge="1" parent="1" source="oAFobFfyp00tC_rnUVrY-5" target="oAFobFfyp00tC_rnUVrY-2">
          <mxGeometry relative="1" as="geometry" />
        </mxCell>
        <mxCell id="oAFobFfyp00tC_rnUVrY-20" value="Implements" style="edgeLabel;html=1;align=center;verticalAlign=middle;resizable=0;points=[];" vertex="1" connectable="0" parent="oAFobFfyp00tC_rnUVrY-9">
          <mxGeometry x="0.6471" y="-4" relative="1" as="geometry">
            <mxPoint as="offset" />
          </mxGeometry>
        </mxCell>
        <mxCell id="oAFobFfyp00tC_rnUVrY-5" value="CallResourceHandler" style="rounded=1;whiteSpace=wrap;html=1;fillColor=#dae8fc;strokeColor=#6c8ebf;" vertex="1" parent="1">
          <mxGeometry x="460" y="650" width="120" height="60" as="geometry" />
        </mxCell>
        <mxCell id="oAFobFfyp00tC_rnUVrY-6" value="StreamHandler" style="rounded=1;whiteSpace=wrap;html=1;fillColor=#dae8fc;strokeColor=#6c8ebf;" vertex="1" parent="1">
          <mxGeometry x="630" y="650" width="120" height="60" as="geometry" />
        </mxCell>
        <mxCell id="oAFobFfyp00tC_rnUVrY-8" style="edgeStyle=orthogonalEdgeStyle;rounded=0;orthogonalLoop=1;jettySize=auto;html=1;entryX=0.167;entryY=1.017;entryDx=0;entryDy=0;entryPerimeter=0;curved=1;endArrow=none;endFill=0;" edge="1" parent="1" source="oAFobFfyp00tC_rnUVrY-4" target="oAFobFfyp00tC_rnUVrY-2">
          <mxGeometry relative="1" as="geometry" />
        </mxCell>
        <mxCell id="oAFobFfyp00tC_rnUVrY-19" value="Implements" style="edgeLabel;html=1;align=center;verticalAlign=middle;resizable=0;points=[];" vertex="1" connectable="0" parent="oAFobFfyp00tC_rnUVrY-8">
          <mxGeometry x="0.6109" y="4" relative="1" as="geometry">
            <mxPoint as="offset" />
          </mxGeometry>
        </mxCell>
        <mxCell id="oAFobFfyp00tC_rnUVrY-11" style="edgeStyle=orthogonalEdgeStyle;rounded=0;orthogonalLoop=1;jettySize=auto;html=1;curved=1;exitX=0.5;exitY=0;exitDx=0;exitDy=0;endArrow=none;endFill=0;" edge="1" parent="1">
          <mxGeometry relative="1" as="geometry">
            <mxPoint x="698" y="650" as="sourcePoint" />
            <mxPoint x="490" y="510" as="targetPoint" />
            <Array as="points">
              <mxPoint x="698" y="510" />
              <mxPoint x="500" y="510" />
            </Array>
          </mxGeometry>
        </mxCell>
        <mxCell id="oAFobFfyp00tC_rnUVrY-17" value="&lt;span style=&quot;color: rgba(0, 0, 0, 0); font-family: monospace; font-size: 0px; text-align: start; background-color: rgb(251, 251, 251);&quot;&gt;%3CmxGraphModel%3E%3Croot%3E%3CmxCell%20id%3D%220%22%2F%3E%3CmxCell%20id%3D%221%22%20parent%3D%220%22%2F%3E%3CmxCell%20id%3D%222%22%20value%3D%22Implements%22%20style%3D%22edgeLabel%3Bhtml%3D1%3Balign%3Dcenter%3BverticalAlign%3Dmiddle%3Bresizable%3D0%3Bpoints%3D%5B%5D%3B%22%20vertex%3D%221%22%20connectable%3D%220%22%20parent%3D%221%22%3E%3CmxGeometry%20x%3D%22211%22%20y%3D%22552%22%20as%3D%22geometry%22%2F%3E%3C%2FmxCell%3E%3C%2Froot%3E%3C%2FmxGraphModel%3EI&lt;/span&gt;" style="edgeLabel;html=1;align=center;verticalAlign=middle;resizable=0;points=[];" vertex="1" connectable="0" parent="oAFobFfyp00tC_rnUVrY-11">
          <mxGeometry x="-0.4655" y="21" relative="1" as="geometry">
            <mxPoint as="offset" />
          </mxGeometry>
        </mxCell>
        <mxCell id="oAFobFfyp00tC_rnUVrY-18" value="Implements" style="edgeLabel;html=1;align=center;verticalAlign=middle;resizable=0;points=[];" vertex="1" connectable="0" parent="oAFobFfyp00tC_rnUVrY-11">
          <mxGeometry x="-0.408" y="21" relative="1" as="geometry">
            <mxPoint as="offset" />
          </mxGeometry>
        </mxCell>
      </root>
    </mxGraphModel>
  </diagram>
  <diagram id="IPMRto11JAyfPZgQmvND" name="Page-3">
    <mxGraphModel dx="2954" dy="1106" grid="1" gridSize="10" guides="1" tooltips="1" connect="1" arrows="1" fold="1" page="1" pageScale="1" pageWidth="827" pageHeight="1169" math="0" shadow="0">
      <root>
        <mxCell id="0" />
        <mxCell id="1" parent="0" />
        <mxCell id="BhC_-8nEvPQbF0YDE_GS-17" value="" style="rounded=1;whiteSpace=wrap;html=1;" vertex="1" parent="1">
          <mxGeometry x="590" y="230" width="156" height="380" as="geometry" />
        </mxCell>
        <mxCell id="BhC_-8nEvPQbF0YDE_GS-19" style="edgeStyle=orthogonalEdgeStyle;rounded=0;orthogonalLoop=1;jettySize=auto;html=1;entryX=0;entryY=0.5;entryDx=0;entryDy=0;" edge="1" parent="1" source="2DsHLunr4raj2-tIZmhP-1" target="BhC_-8nEvPQbF0YDE_GS-17">
          <mxGeometry relative="1" as="geometry" />
        </mxCell>
        <mxCell id="2DsHLunr4raj2-tIZmhP-1" value="NewDataSource" style="rounded=1;whiteSpace=wrap;html=1;fillColor=#dae8fc;strokeColor=#6c8ebf;" vertex="1" parent="1">
          <mxGeometry x="310" y="330" width="120" height="60" as="geometry" />
        </mxCell>
        <mxCell id="BhC_-8nEvPQbF0YDE_GS-8" style="edgeStyle=orthogonalEdgeStyle;rounded=0;orthogonalLoop=1;jettySize=auto;html=1;entryX=0;entryY=0.5;entryDx=0;entryDy=0;" edge="1" parent="1" source="BhC_-8nEvPQbF0YDE_GS-1" target="2DsHLunr4raj2-tIZmhP-1">
          <mxGeometry relative="1" as="geometry" />
        </mxCell>
        <mxCell id="BhC_-8nEvPQbF0YDE_GS-10" value="DataSourceInstanceSettings" style="edgeLabel;html=1;align=center;verticalAlign=middle;resizable=0;points=[];" vertex="1" connectable="0" parent="BhC_-8nEvPQbF0YDE_GS-8">
          <mxGeometry x="-0.2206" relative="1" as="geometry">
            <mxPoint as="offset" />
          </mxGeometry>
        </mxCell>
        <mxCell id="BhC_-8nEvPQbF0YDE_GS-1" value="Frontend component" style="rounded=1;whiteSpace=wrap;html=1;" vertex="1" parent="1">
          <mxGeometry x="210" y="72.5" width="140" height="75" as="geometry" />
        </mxCell>
        <mxCell id="BhC_-8nEvPQbF0YDE_GS-3" value="Settings" style="swimlane;fontStyle=0;childLayout=stackLayout;horizontal=1;startSize=30;horizontalStack=0;resizeParent=1;resizeParentMax=0;resizeLast=0;collapsible=1;marginBottom=0;whiteSpace=wrap;html=1;" vertex="1" parent="1">
          <mxGeometry x="500" y="40" width="140" height="120" as="geometry" />
        </mxCell>
        <mxCell id="BhC_-8nEvPQbF0YDE_GS-4" value="Username" style="text;strokeColor=none;fillColor=none;align=left;verticalAlign=middle;spacingLeft=4;spacingRight=4;overflow=hidden;points=[[0,0.5],[1,0.5]];portConstraint=eastwest;rotatable=0;whiteSpace=wrap;html=1;" vertex="1" parent="BhC_-8nEvPQbF0YDE_GS-3">
          <mxGeometry y="30" width="140" height="30" as="geometry" />
        </mxCell>
        <mxCell id="BhC_-8nEvPQbF0YDE_GS-5" value="Passwrod" style="text;strokeColor=none;fillColor=none;align=left;verticalAlign=middle;spacingLeft=4;spacingRight=4;overflow=hidden;points=[[0,0.5],[1,0.5]];portConstraint=eastwest;rotatable=0;whiteSpace=wrap;html=1;" vertex="1" parent="BhC_-8nEvPQbF0YDE_GS-3">
          <mxGeometry y="60" width="140" height="30" as="geometry" />
        </mxCell>
        <mxCell id="BhC_-8nEvPQbF0YDE_GS-6" value="..." style="text;strokeColor=none;fillColor=none;align=left;verticalAlign=middle;spacingLeft=4;spacingRight=4;overflow=hidden;points=[[0,0.5],[1,0.5]];portConstraint=eastwest;rotatable=0;whiteSpace=wrap;html=1;" vertex="1" parent="BhC_-8nEvPQbF0YDE_GS-3">
          <mxGeometry y="90" width="140" height="30" as="geometry" />
        </mxCell>
        <mxCell id="BhC_-8nEvPQbF0YDE_GS-7" style="edgeStyle=orthogonalEdgeStyle;rounded=0;orthogonalLoop=1;jettySize=auto;html=1;entryX=1;entryY=0.5;entryDx=0;entryDy=0;" edge="1" parent="1" source="BhC_-8nEvPQbF0YDE_GS-5" target="BhC_-8nEvPQbF0YDE_GS-1">
          <mxGeometry relative="1" as="geometry" />
        </mxCell>
        <mxCell id="BhC_-8nEvPQbF0YDE_GS-11" value="Parse settings" style="rounded=1;whiteSpace=wrap;html=1;fillColor=#dae8fc;strokeColor=#6c8ebf;" vertex="1" parent="1">
          <mxGeometry x="606" y="260" width="120" height="60" as="geometry" />
        </mxCell>
        <mxCell id="BhC_-8nEvPQbF0YDE_GS-13" value="Create/Load certificate" style="rounded=1;whiteSpace=wrap;html=1;fillColor=#dae8fc;strokeColor=#6c8ebf;" vertex="1" parent="1">
          <mxGeometry x="606" y="350" width="120" height="60" as="geometry" />
        </mxCell>
        <mxCell id="BhC_-8nEvPQbF0YDE_GS-15" value="Get security endpoints" style="rounded=1;whiteSpace=wrap;html=1;fillColor=#dae8fc;strokeColor=#6c8ebf;" vertex="1" parent="1">
          <mxGeometry x="606" y="440" width="120" height="60" as="geometry" />
        </mxCell>
        <mxCell id="BhC_-8nEvPQbF0YDE_GS-16" value="Crate OPC-UA client" style="rounded=1;whiteSpace=wrap;html=1;fillColor=#dae8fc;strokeColor=#6c8ebf;" vertex="1" parent="1">
          <mxGeometry x="606" y="530" width="120" height="60" as="geometry" />
        </mxCell>
        <mxCell id="BhC_-8nEvPQbF0YDE_GS-20" value="Datasource" style="rounded=1;whiteSpace=wrap;html=1;fillColor=#fff2cc;strokeColor=#d6b656;" vertex="1" parent="1">
          <mxGeometry x="600" y="690" width="120" height="60" as="geometry" />
        </mxCell>
        <mxCell id="BhC_-8nEvPQbF0YDE_GS-21" style="edgeStyle=orthogonalEdgeStyle;rounded=0;orthogonalLoop=1;jettySize=auto;html=1;entryX=0.567;entryY=0;entryDx=0;entryDy=0;entryPerimeter=0;" edge="1" parent="1" source="BhC_-8nEvPQbF0YDE_GS-17" target="BhC_-8nEvPQbF0YDE_GS-20">
          <mxGeometry relative="1" as="geometry" />
        </mxCell>
      </root>
    </mxGraphModel>
  </diagram>
  <diagram id="t6KfxFix1kj8tTAENST_" name="Page-4">
    <mxGraphModel dx="2954" dy="1106" grid="1" gridSize="10" guides="1" tooltips="1" connect="1" arrows="1" fold="1" page="1" pageScale="1" pageWidth="827" pageHeight="1169" math="0" shadow="0">
      <root>
        <mxCell id="0" />
        <mxCell id="1" parent="0" />
        <mxCell id="U8NObJjdRB2ajn7xk0Kn-2" style="edgeStyle=orthogonalEdgeStyle;rounded=0;orthogonalLoop=1;jettySize=auto;html=1;" edge="1" parent="1" source="6_wouaY9lj4N_PbtMfaR-1" target="0UWtmeLTX1wI_dMAmMyv-1">
          <mxGeometry relative="1" as="geometry" />
        </mxCell>
        <mxCell id="U8NObJjdRB2ajn7xk0Kn-3" value="POST /browse" style="edgeLabel;html=1;align=center;verticalAlign=middle;resizable=0;points=[];" vertex="1" connectable="0" parent="U8NObJjdRB2ajn7xk0Kn-2">
          <mxGeometry x="-0.2" y="-1" relative="1" as="geometry">
            <mxPoint as="offset" />
          </mxGeometry>
        </mxCell>
        <mxCell id="6_wouaY9lj4N_PbtMfaR-1" value="Frontend component" style="rounded=1;whiteSpace=wrap;html=1;" vertex="1" parent="1">
          <mxGeometry x="50" y="128.9" width="140" height="75" as="geometry" />
        </mxCell>
        <mxCell id="U8NObJjdRB2ajn7xk0Kn-4" style="edgeStyle=orthogonalEdgeStyle;rounded=0;orthogonalLoop=1;jettySize=auto;html=1;entryX=0;entryY=0.5;entryDx=0;entryDy=0;" edge="1" parent="1" source="0UWtmeLTX1wI_dMAmMyv-1" target="U8NObJjdRB2ajn7xk0Kn-1">
          <mxGeometry relative="1" as="geometry" />
        </mxCell>
        <mxCell id="U8NObJjdRB2ajn7xk0Kn-5" value="CallResource" style="edgeLabel;html=1;align=center;verticalAlign=middle;resizable=0;points=[];" vertex="1" connectable="0" parent="U8NObJjdRB2ajn7xk0Kn-4">
          <mxGeometry x="-0.0989" y="-3" relative="1" as="geometry">
            <mxPoint as="offset" />
          </mxGeometry>
        </mxCell>
        <mxCell id="0UWtmeLTX1wI_dMAmMyv-1" value="Grafana Server" style="image;aspect=fixed;html=1;points=[];align=center;fontSize=12;image=img/lib/azure2/other/Grafana.svg;" vertex="1" parent="1">
          <mxGeometry x="370" y="140" width="68" height="52.800000000000004" as="geometry" />
        </mxCell>
        <mxCell id="U8NObJjdRB2ajn7xk0Kn-1" value="Backend Plugin" style="rounded=1;whiteSpace=wrap;html=1;fillColor=#dae8fc;strokeColor=#6c8ebf;" vertex="1" parent="1">
          <mxGeometry x="620" y="136.4" width="120" height="60" as="geometry" />
        </mxCell>
      </root>
    </mxGraphModel>
  </diagram>
</mxfile>
